<?xml version="1.0" standalone="no"?>
<!DOCTYPE svg PUBLIC "-//W3C//DTD SVG 20010904//EN"
 "http://www.w3.org/TR/2001/REC-SVG-20010904/DTD/svg10.dtd">
<svg version="1.0" xmlns="http://www.w3.org/2000/svg"
 width="512.000000pt" height="512.000000pt" viewBox="0 0 512.000000 512.000000"
 preserveAspectRatio="xMidYMid meet">

<g transform="translate(0.000000,512.000000) scale(0.100000,-0.100000)"
fill="#000000" stroke="none">
<path d="M436 4448 c-7 -13 -21 -46 -30 -75 -20 -59 -76 -117 -125 -128 -66
-14 -64 -76 5 -106 75 -34 102 -64 125 -141 33 -108 85 -112 120 -10 30 88 49
111 117 143 60 29 63 32 60 62 -3 28 -11 36 -63 62 -64 32 -94 71 -116 150 -6
22 -16 46 -21 53 -17 20 -56 14 -72 -10z m71 -290 l-31 -38 -36 35 -37 36 36
39 35 39 31 -37 32 -37 -30 -37z"/>
<path d="M4612 4458 c-5 -7 -15 -31 -21 -53 -22 -79 -52 -118 -116 -150 -53
-26 -60 -34 -63 -62 -3 -31 0 -34 50 -57 69 -31 102 -68 125 -140 33 -103 89
-109 117 -14 23 80 53 119 115 149 30 15 58 34 64 44 15 28 -6 60 -51 73 -50
15 -104 75 -121 134 -7 24 -19 53 -27 66 -16 24 -55 30 -72 10z m89 -249 c15
-14 14 -18 -18 -53 l-35 -38 -34 37 -33 37 32 39 32 38 20 -22 c11 -12 27 -29
36 -38z"/>
<path d="M1133 4341 c-77 -35 -77 -38 -83 -361 l-5 -285 -235 -5 c-224 -5
-237 -6 -272 -28 -51 -31 -106 -98 -118 -141 -6 -22 -10 -236 -10 -533 0 -481
1 -498 19 -508 27 -14 47 -13 65 6 14 14 16 73 16 502 0 537 -1 529 63 576 26
19 44 21 248 24 l219 3 0 -85 0 -86 -151 0 -151 0 -29 -29 -29 -29 0 -1082 0
-1082 29 -29 29 -29 1822 0 1822 0 29 29 29 29 0 1082 0 1082 -29 29 -29 29
-151 0 -151 0 0 86 0 85 219 -3 c204 -3 222 -5 248 -24 15 -11 36 -36 45 -55
17 -32 18 -114 18 -1286 l0 -1253 -2050 0 -2050 0 0 583 c0 574 0 584 -20 602
-16 15 -26 17 -48 9 l-27 -9 -3 -593 -2 -592 -144 0 c-141 0 -145 -1 -175 -26
l-31 -26 0 -113 c0 -85 5 -129 20 -178 40 -130 158 -247 288 -287 62 -19 95
-20 976 -20 696 0 915 3 924 12 16 16 15 65 0 75 -7 4 -427 10 -933 13 l-920
5 -56 28 c-67 32 -142 109 -172 175 -15 34 -22 74 -25 145 l-4 97 889 0 890 0
6 -51 c8 -61 44 -115 94 -135 28 -12 120 -14 538 -12 490 3 504 4 532 24 35
26 73 98 73 141 l0 33 891 0 891 0 -4 -97 c-3 -71 -10 -111 -25 -145 -30 -66
-105 -143 -172 -175 l-56 -28 -1048 -5 c-1023 -5 -1049 -5 -1063 -24 -18 -25
-18 -41 2 -60 14 -14 123 -16 1054 -16 1016 0 1039 0 1104 20 83 26 176 96
228 170 58 83 78 160 78 295 l0 113 -31 26 c-30 25 -34 26 -175 26 l-144 0 0
1258 c0 812 -4 1270 -10 1293 -12 43 -79 122 -124 147 -26 14 -69 18 -266 22
l-235 5 -5 285 c-6 323 -6 326 -83 361 -41 18 -89 19 -1427 19 -1338 0 -1386
-1 -1427 -19z m2815 -97 c21 -15 22 -21 22 -185 l0 -169 -1410 0 -1410 0 0
169 c0 164 1 170 22 185 20 14 168 16 1388 16 1220 0 1368 -2 1388 -16z m22
-847 c0 -427 1 -437 55 -437 47 0 55 30 55 202 l0 158 130 0 130 0 0 -1040 0
-1040 -1780 0 -1780 0 0 1040 0 1040 130 0 129 0 3 -717 3 -718 22 -35 c12
-19 37 -44 55 -55 33 -20 51 -20 1438 -20 1387 0 1405 0 1438 20 18 11 43 36
55 55 21 34 22 45 25 399 3 316 1 366 -13 387 -20 31 -59 31 -79 2 -14 -19
-16 -72 -16 -378 0 -264 -3 -359 -12 -368 -17 -17 -2779 -17 -2796 0 -9 9 -12
235 -12 955 l0 943 1410 0 1410 0 0 -393z m-900 -2561 c0 -67 10 -66 -510 -66
-520 0 -510 -1 -510 66 l0 34 510 0 510 0 0 -34z"/>
<path d="M1265 4106 c-26 -26 -25 -51 3 -73 12 -10 127 -13 497 -13 523 0 525
0 525 55 0 55 -3 55 -523 55 l-478 0 -24 -24z"/>
<path d="M3232 4114 c-46 -32 -18 -94 43 -94 39 0 65 22 65 55 0 27 -34 55
-65 55 -11 0 -31 -7 -43 -16z"/>
<path d="M3490 4110 c-11 -11 -20 -27 -20 -35 0 -24 38 -55 68 -55 38 0 72 26
72 55 0 50 -82 73 -120 35z"/>
<path d="M3762 4114 c-45 -31 -15 -94 44 -94 60 0 87 47 49 86 -28 28 -61 31
-93 8z"/>
<path d="M2515 3507 c-32 -18 -55 -47 -112 -142 -40 -65 -79 -125 -87 -133 -7
-8 -74 -29 -148 -46 -74 -18 -150 -41 -168 -52 -68 -40 -100 -151 -62 -221 9
-17 55 -75 102 -128 47 -53 88 -104 91 -114 3 -9 0 -77 -7 -151 -14 -151 -9
-191 32 -240 67 -80 137 -81 308 -5 68 30 131 55 140 55 8 0 72 -25 142 -56
89 -40 138 -56 169 -56 92 0 164 64 173 151 2 26 -1 103 -7 169 -9 86 -9 127
-2 141 6 11 51 66 101 121 118 134 135 196 77 280 -36 54 -69 71 -198 101 -68
16 -135 34 -149 40 -18 6 -48 46 -93 123 -93 156 -128 186 -214 186 -31 0 -62
-8 -88 -23z m129 -90 c10 -8 51 -67 90 -133 45 -73 85 -127 105 -141 17 -12
90 -35 164 -53 161 -38 177 -47 177 -99 0 -35 -10 -50 -95 -145 -118 -132
-122 -144 -106 -304 15 -162 14 -179 -9 -202 -31 -31 -66 -25 -201 35 -80 35
-138 55 -163 55 -25 0 -84 -19 -167 -55 -139 -60 -169 -65 -199 -35 -23 23
-25 72 -9 220 14 136 7 155 -107 284 -105 119 -117 144 -87 184 17 23 40 32
154 59 74 17 149 39 167 49 32 17 64 60 137 184 21 36 47 75 58 88 23 25 64
29 91 9z"/>
<path d="M3984 2835 c-15 -23 -15 -27 0 -50 10 -15 26 -25 41 -25 15 0 31 10
41 25 15 23 15 27 0 50 -10 15 -26 25 -41 25 -15 0 -31 -10 -41 -25z"/>
<path d="M428 2359 c-26 -14 -23 -65 3 -79 52 -28 102 28 64 70 -20 22 -41 25
-67 9z"/>
<path d="M2400 400 c-23 -23 -24 -33 -10 -61 12 -22 59 -26 78 -7 19 19 15 66
-7 78 -28 14 -38 13 -61 -10z"/>
</g>
</svg>
